<?xml version="1.0" standalone="no"?>
<!DOCTYPE svg PUBLIC "-//W3C//DTD SVG 20010904//EN"
 "http://www.w3.org/TR/2001/REC-SVG-20010904/DTD/svg10.dtd">
<svg version="1.0" xmlns="http://www.w3.org/2000/svg"
 width="1920.000000pt" height="1080.000000pt" viewBox="0 0 1920.000000 1080.000000"
 preserveAspectRatio="xMidYMid meet">

<g transform="translate(0.000000,1080.000000) scale(0.100000,-0.100000)"
fill="#000000" stroke="none">
<path d="M93 10738 c35 -35 71 -76 81 -91 43 -71 66 -123 82 -190 37 -157 53
-167 353 -218 216 -36 254 -44 361 -76 140 -42 206 -83 193 -121 -6 -17 -58
-42 -168 -82 -166 -60 -233 -103 -250 -158 -9 -31 26 -69 76 -82 20 -6 185
-35 365 -65 430 -72 463 -79 633 -132 213 -65 242 -84 271 -178 23 -75 54
-111 117 -136 54 -21 78 -23 333 -29 179 -4 285 -10 303 -18 16 -7 40 -12 54
-12 14 0 40 -9 58 -20 52 -32 137 -58 160 -49 26 10 94 10 120 0 16 -6 1 -20
-90 -81 -292 -195 -532 -419 -729 -678 -34 -44 -54 -62 -65 -59 -9 3 -81 29
-161 57 -333 120 -934 294 -1423 414 -213 52 -748 158 -756 150 -3 -3 -7 -928
-9 -2055 l-3 -2048 23 -6 c13 -3 148 -32 300 -64 153 -31 280 -60 284 -63 6
-6 -70 -358 -86 -395 -8 -18 -14 -21 -52 -16 -24 3 -50 9 -59 14 -12 6 -360
59 -390 59 -4 0 -10 10 -12 22 -2 13 -5 -957 -6 -2154 l-1 -2178 2365 0 2364
0 37 68 c96 172 219 331 332 430 l60 52 215 0 c204 0 216 -1 257 -23 59 -31
85 -68 84 -118 -2 -54 -24 -78 -24 -25 0 77 -84 120 -159 81 -39 -20 -119
-111 -160 -181 -19 -32 -40 -64 -48 -70 -11 -9 -103 -197 -103 -210 0 -2 4 -4
9 -4 6 0 30 42 54 93 l44 94 199 68 c184 63 733 275 884 341 60 26 75 29 180
28 193 -1 368 -49 658 -180 219 -100 554 -267 728 -365 l141 -79 2875 0 2876
0 -215 856 c-117 471 -212 858 -211 860 4 4 178 -74 193 -86 6 -5 155 -374
330 -820 l320 -810 167 0 167 0 -89 183 c-109 226 -229 502 -308 712 -67 178
-166 480 -177 538 l-7 38 53 -21 c146 -58 121 -26 243 -311 137 -319 288 -652
421 -926 l103 -213 2171 0 2171 0 0 1413 c0 778 -3 1502 -7 1611 l-6 197 -401
-7 c-387 -7 -496 -3 -496 16 0 6 17 21 38 34 22 13 44 38 51 54 18 43 82 86
118 78 15 -3 42 -2 58 2 29 8 29 9 8 16 -26 8 -31 26 -8 26 25 0 17 17 -19 39
-19 12 -63 52 -99 90 -94 100 -119 191 -71 259 16 24 80 55 94 47 5 -3 11 -1
15 5 3 5 30 17 58 25 71 20 127 67 127 105 0 36 -10 41 -119 69 -109 27 -159
57 -218 132 -62 80 -103 100 -218 108 -74 4 -83 7 -50 12 34 5 30 6 -27 8 -45
1 -80 -5 -110 -18 -43 -18 -99 -25 -303 -37 -98 -5 -115 -9 -156 -35 -25 -16
-48 -29 -52 -29 -3 0 -32 -17 -64 -37 -84 -54 -94 -61 -128 -79 -77 -43 -184
-138 -230 -204 -46 -67 -69 -215 -43 -277 13 -31 67 -93 81 -93 5 0 21 -8 35
-19 23 -15 51 -26 97 -36 87 -20 211 -44 250 -49 92 -12 105 -17 105 -36 0
-11 -9 -24 -20 -30 -28 -15 -285 -118 -353 -142 l-59 -20 -24 23 c-32 30 -70
28 -121 -4 -43 -27 -95 -36 -90 -16 6 30 -163 79 -175 51 -1 -4 -24 -22 -49
-38 l-46 -31 -219 -6 c-120 -3 -480 -11 -800 -17 l-580 -12 -140 75 c-76 40
-164 89 -194 107 -30 18 -110 59 -176 90 -122 58 -154 80 -115 80 42 0 18 19
-95 75 -97 48 -121 56 -151 52 -20 -4 -40 -11 -43 -18 -5 -7 -71 7 -216 49
-115 33 -234 65 -265 72 -55 12 -62 18 -223 179 l-167 167 22 51 c20 48 23 51
46 42 40 -15 207 -11 239 6 32 16 123 19 262 8 103 -8 111 -17 81 -97 -12 -30
-19 -62 -15 -71 3 -9 23 -23 43 -32 31 -13 102 -17 393 -24 314 -7 465 -17
523 -35 11 -3 17 -15 17 -35 0 -66 61 -89 235 -89 l121 0 -4 40 c-4 34 0 44
27 69 48 45 113 62 222 59 l93 -3 -1 -54 c-2 -60 -19 -86 -64 -96 -60 -13 -38
-25 48 -25 48 0 158 -3 244 -7 150 -6 158 -5 187 16 17 12 57 34 89 48 37 18
52 29 41 31 -10 2 -18 5 -18 7 0 3 18 22 41 44 36 34 40 44 38 77 -2 33 -32
107 -49 124 -3 3 -13 17 -23 33 -10 15 -22 27 -28 27 -6 0 -31 14 -55 31 -74
50 -256 124 -356 143 -13 2 -30 7 -38 10 -16 6 -49 12 -110 22 -19 3 -41 7
-49 10 -8 2 -30 7 -50 10 -20 3 -61 10 -91 15 -30 6 -71 12 -90 15 -19 3 -46
7 -60 9 -14 3 -61 7 -105 10 -44 3 -93 7 -110 10 -16 2 -60 7 -96 10 -36 4
-79 8 -95 10 -16 2 -74 7 -129 10 -147 11 -181 18 -177 38 4 21 -21 22 -38 2
-7 -8 -28 -15 -47 -15 -26 0 -36 5 -40 20 -6 24 -12 25 -40 5 -17 -12 -10 5
26 67 27 46 59 112 72 147 18 48 33 69 60 88 62 41 101 105 106 177 6 70 -6
103 -54 149 l-30 27 19 133 c10 72 22 217 27 321 6 104 12 191 15 193 3 3 25
-3 50 -12 68 -26 186 -17 260 19 104 51 203 194 252 366 17 57 19 97 17 315
-1 138 -5 272 -10 299 -8 48 -10 51 -63 77 -45 21 -92 31 -260 53 -113 14
-230 31 -260 36 -30 6 -361 51 -735 101 -676 90 -680 91 -732 74 -87 -27 -108
-52 -132 -155 -12 -49 -28 -132 -36 -186 -8 -53 -16 -99 -19 -101 -6 -6 -540
-150 -546 -147 -6 3 18 920 25 951 10 44 146 233 222 308 136 135 310 235 488
280 134 34 228 45 392 45 175 0 297 -22 435 -78 123 -51 191 -95 292 -193 94
-90 164 -185 225 -306 41 -83 94 -213 88 -219 -11 -11 -213 -15 -317 -5 -288
26 -472 70 -815 195 -122 44 -197 29 -235 -48 -57 -118 6 -185 230 -245 323
-86 632 -137 1062 -177 l177 -16 25 29 c14 15 25 33 26 38 0 6 -11 -3 -23 -19
l-24 -29 -99 7 c-393 28 -817 96 -1127 181 -139 38 -190 60 -226 99 -20 22
-23 32 -19 77 5 43 11 58 37 81 47 42 109 39 247 -13 161 -62 360 -117 524
-146 121 -21 185 -26 390 -30 308 -6 303 -4 333 -138 3 -11 2 3 -1 30 -2 28
-5 57 -5 65 0 8 26 53 58 99 l58 83 48 -6 c99 -13 205 -47 269 -86 65 -40 87
-39 74 3 -4 13 0 17 20 17 14 0 26 4 26 10 0 22 72 120 100 137 16 9 30 24 30
33 -1 20 -28 53 -62 75 -22 13 -28 25 -28 51 0 29 7 39 50 70 44 31 48 38 37
54 -6 11 -18 22 -27 26 -8 3 -93 8 -189 11 l-173 6 6 51 c5 42 -1 31 -33 -66
-59 -176 -172 -401 -258 -515 l-24 -33 -32 17 c-18 9 -45 19 -60 22 -25 5 -33
17 -62 92 -87 225 -200 389 -354 511 -84 68 -243 148 -348 177 -297 81 -724
35 -970 -105 -176 -100 -329 -249 -431 -420 l-49 -83 -8 -303 c-4 -167 -10
-384 -14 -483 l-6 -180 -194 -52 c-109 -29 -202 -60 -213 -70 -29 -26 -48 -67
-48 -102 0 -25 -7 -34 -38 -50 -114 -58 -194 -254 -164 -398 55 -262 227 -425
421 -398 l48 6 7 -68 c31 -305 150 -594 331 -803 l56 -65 -28 -23 c-61 -50
-273 -135 -397 -158 l-39 -7 5 129 c4 113 8 137 31 187 37 82 33 87 -77 87
-148 0 -349 31 -413 64 -22 11 -19 17 117 221 77 116 140 213 140 216 0 3 -55
20 -122 36 -68 17 -181 52 -253 78 -126 45 -425 187 -474 224 l-24 19 30 39
c92 116 367 359 503 444 18 12 25 7 -132 95 -150 85 -306 203 -427 323 -99 97
-211 230 -211 248 0 6 22 13 49 17 116 15 325 110 486 220 94 64 361 271 371
288 11 18 -151 406 -238 568 -58 109 -129 230 -134 230 -2 0 10 -30 27 -67 29
-64 29 -68 12 -81 -25 -18 -104 -40 -188 -51 -85 -12 -108 -34 -101 -96 6 -50
47 -88 114 -105 83 -21 137 -43 155 -63 9 -11 17 -17 17 -12 0 4 6 3 13 -3 11
-9 76 -24 160 -37 33 -5 40 -12 66 -63 36 -72 71 -181 67 -207 -3 -25 -216
-202 -355 -296 -169 -114 -287 -167 -461 -205 -41 -9 -78 -19 -83 -23 -10 -10
40 -83 114 -167 86 -98 213 -209 367 -320 72 -53 132 -98 132 -100 0 -2 -6 -1
-12 1 -7 2 -98 23 -203 45 -104 23 -383 84 -620 137 l-430 95 -215 -5 c-177
-5 -237 -10 -339 -31 -67 -14 -130 -31 -138 -38 -13 -11 -18 -10 -27 6 -45 80
-106 89 -169 25 -38 -38 -42 -39 -65 -27 -32 17 -61 12 -91 -15 -23 -22 -24
-22 -35 -3 -47 81 -101 87 -152 16 -20 -28 -33 -57 -33 -78 -1 -23 -9 -40 -28
-56 l-27 -23 18 -76 c15 -64 24 -80 51 -101 30 -23 32 -29 33 -90 1 -63 0 -66
-28 -81 -17 -9 -30 -17 -30 -19 0 -2 9 -23 20 -47 26 -59 25 -74 -10 -106 -38
-33 -39 -71 -5 -101 17 -15 25 -32 25 -56 0 -22 10 -46 30 -71 28 -35 29 -39
15 -66 -19 -36 -19 -83 0 -99 8 -7 30 -16 48 -19 l32 -7 7 -104 c4 -58 15
-177 23 -265 8 -88 15 -180 15 -205 0 -70 38 -309 66 -416 42 -164 120 -325
162 -338 9 -3 195 -33 412 -67 217 -33 396 -62 398 -64 6 -6 -11 -335 -18
-335 -4 0 -42 42 -84 94 -66 81 -92 106 -112 106 -2 0 -22 -17 -45 -37 l-41
-37 -57 12 c-81 17 -200 15 -235 -3 -15 -8 -50 -33 -77 -56 -38 -31 -49 -48
-49 -69 0 -26 4 -29 38 -32 70 -6 52 -49 -61 -145 -35 -30 -37 -34 -37 -93 0
-66 -16 -103 -88 -203 l-35 -48 -226 6 c-124 3 -784 15 -1466 25 -682 11
-1287 21 -1345 23 l-105 2 -145 71 c-80 39 -196 93 -259 120 -107 46 -115 52
-132 90 l-19 41 -162 6 c-187 7 -321 25 -496 68 -323 79 -686 238 -884 387
-140 105 -446 362 -488 410 -211 239 -526 1008 -533 1298 -1 40 -4 74 -7 74
-3 0 -27 -21 -52 -47 -30 -31 -50 -63 -57 -89 -6 -23 -17 -47 -24 -52 -19 -16
-195 29 -277 70 -140 71 -244 219 -290 418 -68 293 28 520 260 609 126 49 231
41 289 -23 14 -14 31 -26 39 -26 7 0 346 106 753 235 406 129 746 235 754 235
12 0 15 -13 15 -59 0 -94 37 -284 80 -412 97 -291 262 -555 414 -664 162 -115
348 -171 581 -174 156 -2 236 14 344 69 303 152 543 574 587 1030 4 41 12 78
18 82 20 14 98 8 127 -9 24 -14 29 -23 24 -43 -24 -120 -55 -476 -55 -644 l0
-122 49 -55 c79 -89 158 -205 181 -267 12 -31 24 -90 27 -129 l6 -73 86 -82
c107 -103 172 -148 286 -197 140 -60 221 -74 383 -68 164 7 161 7 236 40 298
135 466 459 507 980 16 196 9 314 -22 373 -13 26 -35 55 -49 65 -14 10 -122
48 -240 84 -118 36 -221 69 -229 73 -9 5 -22 46 -32 98 -20 101 -77 303 -115
402 l-25 67 27 20 c112 82 141 129 156 258 26 228 -26 428 -158 614 -25 35
-92 114 -149 177 l-104 114 29 12 c61 25 57 35 -28 80 -44 23 -100 59 -123 81
l-44 41 30 23 c16 13 27 26 25 27 -3 2 -29 18 -58 36 -41 24 -57 29 -75 23
-13 -5 -35 -7 -50 -4 -20 4 -27 1 -27 -11 0 -18 -15 -22 -25 -6 -12 20 -210
164 -313 227 -289 179 -683 346 -972 413 -175 40 -181 47 -80 96 36 17 71 38
78 47 11 12 8 16 -21 21 -18 3 -40 15 -50 26 -21 25 -43 25 -91 -1 -52 -28
-137 -37 -157 -16 -62 61 -240 93 -413 72 -64 -7 -70 -6 -85 14 -19 24 -73 40
-138 41 -35 0 -41 3 -36 16 5 15 22 16 152 8 80 -4 214 -8 296 -9 107 -1 166
-6 205 -17 125 -38 225 -47 397 -37 66 4 88 9 110 27 16 12 38 27 49 33 12 6
27 22 33 35 6 13 19 24 29 24 25 0 42 19 42 47 0 13 5 23 12 23 8 0 8 3 3 9
-6 5 -64 14 -130 21 -320 29 -437 43 -515 61 -47 11 -134 23 -195 26 -85 4
-120 11 -155 28 -25 12 -73 29 -106 39 -84 22 -365 43 -494 36 -99 -6 -107 -5
-142 18 -24 16 -47 23 -63 20 -13 -3 -22 -2 -20 2 3 4 -4 10 -14 13 -21 5 -38
57 -21 67 10 6 -14 107 -50 207 -13 37 -40 49 -71 33 -19 -11 -78 -7 -129 8
-8 2 -25 5 -37 6 -12 0 -19 3 -17 5 2 2 -2 11 -10 20 -33 38 -66 120 -72 179
-6 54 -5 62 9 57 8 -4 18 -2 22 4 4 8 -29 11 -104 11 l-111 0 0 -33 c0 -39 36
-96 159 -256 44 -57 94 -131 112 -164 l31 -59 -19 -26 c-21 -28 -73 -57 -213
-120 -105 -47 -157 -91 -166 -139 -8 -43 11 -64 73 -82 38 -10 43 -16 53 -54
21 -77 49 -123 92 -147 38 -21 48 -22 142 -16 55 3 124 9 151 12 50 6 50 6 63
-28 17 -47 16 -56 -13 -90 -14 -16 -25 -37 -25 -47 0 -25 45 -64 87 -76 20 -5
42 -20 51 -33 14 -21 14 -23 -4 -28 -10 -3 -109 -43 -219 -89 l-200 -84 -33
35 c-37 39 -44 41 -347 93 -201 36 -226 42 -254 70 -16 16 -34 21 -73 22 -29
0 -159 4 -288 8 -315 11 -352 27 -275 112 19 22 35 45 35 53 0 10 -32 18 -112
30 -239 36 -357 58 -465 86 -112 29 -213 67 -213 79 0 4 30 22 68 40 85 42
198 117 206 136 6 16 -24 49 -64 70 -52 27 -237 86 -562 179 -443 126 -553
166 -627 224 -20 16 -24 28 -23 68 2 61 9 97 29 150 13 38 13 45 -1 73 l-17
31 -259 0 -260 0 63 -62z m3862 -927 c35 -8 29 -9 -52 -10 -88 -1 -143 9 -143
27 0 9 134 -2 195 -17z m1300 -305 c542 -84 986 -276 1460 -632 151 -113 180
-148 54 -64 -57 38 -150 89 -205 114 -56 24 -220 101 -365 169 -408 193 -442
205 -662 233 -108 13 -209 15 -680 11 -769 -7 -802 -13 -1119 -200 -79 -46
-190 -110 -248 -142 -369 -205 -451 -257 -585 -376 -232 -206 -364 -398 -604
-877 -276 -552 -288 -597 -298 -1078 -8 -419 12 -580 108 -884 54 -169 71
-213 122 -314 109 -214 265 -375 498 -512 59 -34 69 -45 93 -98 14 -33 24 -61
22 -64 -9 -8 -119 30 -190 67 -248 128 -460 402 -647 836 -60 140 -99 284
-130 486 -19 118 -23 186 -23 374 -1 238 5 306 50 555 110 608 380 1112 821
1531 349 331 855 618 1418 803 161 53 206 63 330 75 140 14 661 6 780 -13z
m310 -754 c720 -183 1244 -521 1565 -1008 134 -203 224 -394 289 -614 32 -108
82 -330 75 -330 -3 0 -590 178 -1307 396 -716 217 -1338 402 -1382 411 -44 8
-109 21 -145 29 -65 14 -105 20 -210 31 -50 5 -60 2 -100 -25 -72 -48 -90 -74
-151 -213 l-57 -132 -173 -62 c-96 -35 -403 -147 -682 -250 -280 -103 -511
-185 -513 -182 -8 8 72 306 119 442 50 148 122 327 166 412 66 130 351 444
541 596 309 248 690 430 1053 503 191 38 246 43 512 40 l240 -3 160 -41z m-9
-1532 c90 -30 92 -31 97 -67 8 -45 -16 -88 -72 -132 -45 -36 -64 -44 -196 -82
-95 -28 -201 -38 -239 -23 -25 10 -19 52 12 81 15 14 54 44 87 66 73 50 155
125 155 143 0 18 28 44 48 44 9 0 58 -14 108 -30z m7494 -44 c0 -2 -9 -6 -20
-9 -11 -3 -18 -1 -14 4 5 9 34 13 34 5z m-7211 -56 c53 -27 97 -73 128 -134
25 -49 26 -55 20 -176 -22 -445 -179 -740 -474 -887 -86 -43 -98 -46 -190 -51
-234 -11 -449 68 -629 231 -52 47 -135 160 -171 232 -19 38 -70 179 -79 217
-2 10 -6 28 -10 41 -29 121 -29 122 59 136 39 6 126 16 192 21 66 6 156 14
200 19 44 5 83 7 86 5 7 -4 115 14 304 51 246 49 360 111 477 263 22 28 42 52
45 52 2 0 21 -9 42 -20z m7494 -110 c150 -22 295 -45 322 -50 28 -5 67 -12 87
-15 42 -7 88 -41 129 -99 28 -37 29 -44 29 -144 0 -176 -49 -422 -106 -534
-40 -77 -136 -130 -250 -136 -147 -8 -289 53 -415 178 -86 85 -142 187 -175
320 -27 108 -25 283 5 365 22 61 79 155 94 155 5 0 131 -18 280 -40z m1202
-134 c237 -31 292 -46 337 -90 58 -57 62 -74 50 -263 -8 -136 -15 -184 -37
-253 -48 -150 -111 -252 -176 -286 -36 -18 -140 -18 -183 0 -66 27 -164 135
-215 234 -12 23 -35 77 -51 120 -29 75 -30 80 -30 263 0 179 1 188 23 221 28
40 70 85 77 82 3 -1 95 -14 205 -28z m-405 -189 l0 -213 41 -55 c96 -128 159
-321 161 -489 1 -102 -13 -154 -54 -197 -26 -28 -30 -28 -111 -3 -128 40 -216
154 -239 309 -10 67 -9 72 45 252 55 183 56 186 68 384 6 110 16 206 22 213 5
6 22 12 38 12 l29 0 0 -213z m42 183 c-6 -44 -22 -47 -22 -6 0 23 5 36 13 36
9 0 12 -10 9 -30z m-7317 -84 c17 -4 44 -11 60 -16 17 -5 71 -19 120 -31 50
-12 149 -41 220 -64 72 -23 168 -54 215 -69 47 -15 110 -39 140 -53 30 -14 66
-27 80 -30 67 -12 141 -87 165 -165 26 -89 17 -253 -20 -365 -8 -23 -16 -52
-19 -65 -8 -44 -70 -203 -100 -258 -71 -132 -162 -224 -274 -282 -58 -29 -77
-33 -159 -36 -171 -7 -308 40 -426 146 -76 69 -116 120 -167 215 -106 198
-126 304 -117 635 7 252 24 366 59 394 71 56 123 67 223 44z m7172 -118 c-2
-13 -4 -5 -4 17 -1 22 1 32 4 23 2 -10 2 -28 0 -40z m-1187 -210 c56 -155 173
-335 266 -409 101 -80 216 -118 380 -126 184 -9 261 16 370 119 l51 48 7 -58
c8 -72 50 -162 105 -224 73 -82 217 -132 262 -92 36 32 60 93 66 164 l6 69 43
-36 44 -35 0 -107 c0 -120 -12 -269 -37 -449 l-16 -124 32 -25 c65 -51 79
-128 37 -211 -28 -55 -49 -76 -95 -95 -25 -11 -35 -22 -37 -42 -2 -15 -18 -60
-37 -99 -117 -246 -337 -407 -647 -472 -106 -22 -396 -22 -511 0 -159 30 -352
115 -532 234 -131 88 -181 133 -256 233 -145 191 -229 408 -270 692 l-17 122
-100 5 c-86 5 -106 9 -153 35 -55 30 -117 97 -151 164 -10 20 -30 76 -46 125
-26 84 -27 92 -15 164 21 141 76 225 183 283 119 64 247 41 366 -66 29 -26 55
-45 59 -42 3 4 11 50 17 104 10 90 13 98 36 106 26 9 523 105 551 106 11 1 24
-19 39 -61z m-645 -115 c-12 -112 -10 -110 -56 -68 -22 19 -60 45 -84 57 -25
12 -45 25 -45 28 0 7 130 36 168 39 23 1 23 -1 17 -56z m-3147 -88 c2 -21 -2
-41 -8 -45 -9 -6 -8 -27 5 -84 20 -90 16 -109 -22 -104 -27 3 -28 5 -30 68 -1
36 6 88 14 117 9 29 13 59 10 67 -7 16 2 28 17 23 6 -2 12 -21 14 -42z m-21
-747 c-3 -8 -6 -5 -6 6 -1 11 2 17 5 13 3 -3 4 -12 1 -19z m5160 -1003 c-4 -8
-11 -15 -17 -15 -6 0 -6 7 2 20 14 22 24 19 15 -5z m-1519 -92 c151 -92 301
-151 459 -181 l90 -17 -37 -100 c-21 -55 -59 -171 -86 -258 -35 -113 -53 -156
-62 -152 -42 16 -239 181 -375 315 l-157 155 15 55 c38 134 68 230 72 230 3 0
39 -21 81 -47z m-10113 -67 c198 -35 446 -79 550 -96 l190 -33 105 -85 c58
-46 105 -90 105 -96 0 -13 -174 -138 -230 -165 l-40 -19 -560 76 c-527 73
-560 79 -559 97 0 11 11 102 24 203 19 150 26 182 40 182 8 0 177 -29 375 -64z
m11451 9 c-9 -13 -16 -31 -16 -39 0 -17 -5 -21 -42 -30 -35 -8 -37 11 -3 24
14 5 22 15 20 22 -3 7 7 21 22 30 37 23 38 22 19 -7z m-1513 -194 c110 -130
303 -307 461 -421 83 -60 162 -117 175 -128 l24 -18 -67 -200 c-36 -109 -70
-205 -74 -211 -9 -15 -52 13 -247 157 -232 172 -606 501 -605 534 1 6 23 40
51 76 27 36 80 125 116 199 l67 133 19 -23 c10 -13 46 -57 80 -98z m-8935
-283 c176 -359 494 -632 940 -808 58 -23 82 -38 82 -50 0 -56 -78 -230 -145
-326 -68 -95 -142 -274 -170 -411 l-6 -32 -76 46 c-455 276 -852 767 -1093
1350 l-48 117 68 17 c37 10 96 32 131 50 71 35 197 120 224 149 10 11 21 20
25 20 4 0 35 -55 68 -122z m14328 73 c57 -26 114 -79 114 -105 0 -54 -67 -72
-258 -71 -98 0 -138 22 -135 74 1 40 17 58 56 67 18 3 37 10 42 14 10 8 109
37 130 39 6 0 28 -8 51 -18z m-4412 -288 l58 -62 44 -208 c24 -114 44 -217 44
-228 0 -11 -22 17 -50 64 -94 156 -211 291 -338 391 l-32 25 -6 160 -7 160
114 -120 c63 -66 140 -148 173 -182z m-2362 32 c188 -31 345 -58 348 -61 3 -3
-9 -15 -25 -27 -93 -67 -150 -149 -175 -249 -10 -38 -17 -48 -33 -48 -40 0
-542 72 -550 79 -10 10 8 135 33 232 25 97 37 129 50 129 5 0 164 -25 352 -55z
m-7238 -146 c147 -104 341 -193 534 -246 83 -23 118 -26 242 -27 166 -1 190 6
230 68 l25 39 3 -40 c4 -55 -23 -176 -50 -226 -28 -51 -68 -65 -185 -66 -73
-1 -94 3 -175 36 -329 131 -609 331 -776 554 -23 31 -42 59 -42 63 0 5 28 -17
61 -49 34 -31 93 -79 133 -106z m1149 -135 c17 -4 97 -9 176 -13 l143 -6 29
-56 c35 -67 79 -190 114 -319 21 -78 27 -132 35 -300 5 -113 12 -249 16 -302
3 -54 2 -98 -2 -97 -5 0 -52 54 -104 120 -52 66 -108 132 -124 147 -16 15 -1
-7 34 -48 80 -97 240 -309 251 -335 15 -34 479 -1631 479 -1648 0 -21 -52 -57
-82 -57 -32 0 -41 8 -62 57 -22 49 -115 141 -202 200 l-60 41 -272 811 -271
811 20 45 c11 25 26 92 34 148 l13 102 -72 74 c-39 41 -119 120 -179 175 -94
87 -105 101 -93 115 45 52 76 161 76 270 0 37 3 70 6 74 6 6 30 4 97 -9z
m12795 -160 c82 -25 106 -44 55 -44 -16 0 -67 -3 -115 -7 -95 -6 -91 -8 -102
55 l-6 32 43 -6 c23 -3 79 -17 125 -30z m-4255 -111 c95 -158 176 -368 151
-393 -5 -5 -32 0 -67 14 -108 45 -111 49 -172 222 l-29 81 28 76 c15 42 31 77
35 77 4 0 28 -35 54 -77z m-413 27 c15 -11 46 -43 68 -73 39 -50 42 -59 52
-151 6 -54 9 -101 6 -104 -9 -8 -136 48 -162 72 -13 12 -39 63 -58 115 -37 99
-37 110 2 154 19 21 51 16 92 -13z m-8664 -609 c74 -52 183 -161 231 -232 25
-37 62 -167 221 -765 106 -396 192 -727 192 -736 0 -11 -21 -19 -76 -30 l-75
-15 -359 717 -359 718 19 78 c32 132 105 314 126 314 6 0 42 -22 80 -49z"/>
<path d="M13725 5113 c-172 -15 -623 -116 -650 -145 -7 -8 -4 -9 10 -5 11 2
79 21 150 41 241 66 387 88 609 94 224 5 301 -4 425 -48 80 -28 116 -26 44 3
-140 55 -374 79 -588 60z"/>
<path d="M4975 10784 c-8 -9 -12 -20 -9 -26 4 -7 2 -8 -5 -4 -6 4 -14 0 -17
-11 -3 -10 -15 -40 -27 -66 -20 -46 -20 -49 -4 -59 10 -5 15 -14 11 -19 -3 -6
3 -13 15 -16 11 -3 18 -10 14 -16 -3 -5 -1 -7 5 -4 5 4 39 -6 74 -23 34 -16
71 -30 80 -30 9 0 19 -4 22 -9 3 -4 29 -11 58 -15 42 -6 56 -4 77 12 53 39 99
46 282 46 150 0 179 -2 193 -16 21 -22 20 -40 -5 -72 -12 -15 -19 -29 -16 -32
6 -6 296 -20 629 -29 231 -7 237 -6 254 14 13 14 35 22 76 27 36 4 57 11 55
18 -2 6 -54 38 -117 71 -128 68 -176 115 -215 211 l-24 59 -159 3 c-150 2
-160 1 -165 -17 -7 -30 -55 -55 -106 -55 -43 -1 -47 1 -66 37 l-20 37 -437 0
c-380 -1 -439 -3 -453 -16z m-9 -83 c-31 -60 -26 -74 40 -114 55 -33 58 -55 5
-27 -46 23 -81 64 -81 94 0 21 50 109 58 102 2 -2 -8 -27 -22 -55z"/>
<path d="M8427 10785 c-6 -15 22 -39 79 -68 62 -32 200 -58 483 -92 159 -19
300 -39 313 -44 13 -5 50 -41 82 -80 88 -108 163 -171 264 -225 63 -34 94 -56
98 -71 3 -12 -6 -52 -20 -89 -51 -135 -24 -191 114 -234 58 -19 187 -31 386
-37 310 -9 323 -12 419 -104 40 -39 75 -63 101 -70 34 -9 321 -61 337 -61 4 0
13 13 21 29 18 33 14 38 -88 125 -100 84 -117 132 -67 188 32 36 76 53 184 67
83 12 105 26 81 52 -32 35 -114 43 -404 41 -151 -1 -296 2 -322 7 -74 13 -109
43 -142 120 -61 145 -152 266 -370 498 l-59 63 -743 0 c-642 0 -743 -2 -747
-15z"/>
<path d="M13865 10793 c11 -2 89 -20 174 -40 122 -28 174 -35 249 -34 99 1
145 8 137 21 -2 4 -30 19 -60 34 -55 26 -57 26 -288 25 -127 -1 -223 -3 -212
-6z"/>
<path d="M18563 10786 c-4 -8 -43 -41 -85 -75 -69 -54 -87 -77 -94 -119 -3
-19 49 -38 123 -47 44 -5 75 -16 112 -40 28 -17 81 -42 119 -53 65 -20 354
-62 426 -62 l36 0 0 205 0 205 -315 0 c-260 0 -315 -2 -322 -14z"/>
<path d="M4891 10693 c-10 -26 -10 -27 4 -9 8 11 15 23 15 28 0 15 -7 8 -19
-19z"/>
<path d="M14930 10574 c-128 -12 -220 -29 -253 -46 -62 -31 -124 -100 -136
-150 -17 -67 -31 -109 -53 -155 -17 -36 -26 -44 -61 -53 -101 -25 -119 -33
-159 -70 -23 -22 -47 -40 -53 -40 -7 0 -18 -7 -25 -15 -12 -14 -6 -27 28 -58
99 -90 132 -135 136 -189 1 -3 12 -21 24 -38 16 -21 29 -29 40 -25 9 3 13 3
10 -1 -8 -7 26 -43 64 -68 47 -31 91 -37 358 -46 146 -6 289 -15 318 -21 55
-11 242 -8 677 11 229 10 517 30 524 36 2 2 -4 13 -14 24 -14 16 -31 20 -75
20 -32 0 -72 3 -89 6 -51 10 -126 87 -179 181 -62 113 -107 153 -202 182 -41
12 -90 28 -109 34 -35 12 -64 45 -76 85 -5 18 -2 22 17 22 28 0 395 182 418
207 27 30 42 73 27 78 -6 2 -115 8 -242 14 -198 10 -237 9 -279 -4 -27 -8 -80
-15 -117 -15 -57 0 -72 4 -97 24 -38 33 -106 56 -164 56 -27 0 -48 5 -48 10 0
9 -125 11 -210 4z"/>
<path d="M7189 10185 c-22 -21 -113 -67 -99 -50 20 24 5 27 -23 5 -15 -12 -29
-20 -32 -20 -4 1 -10 -2 -13 -6 -4 -4 0 -4 8 1 14 7 -9 -16 -65 -64 -12 -9
-27 -15 -34 -13 -8 3 -11 0 -8 -6 4 -5 -1 -16 -10 -23 -11 -10 -14 -10 -9 -2
5 9 2 11 -8 7 -9 -3 -14 -10 -11 -14 2 -4 -4 -15 -15 -25 -11 -10 -17 -21 -15
-26 3 -4 1 -10 -4 -13 -13 -8 -8 19 7 36 9 12 9 15 -3 15 -8 0 -12 -3 -10 -6
2 -4 -10 -24 -26 -45 -16 -22 -29 -37 -29 -34 0 3 -17 -10 -37 -28 -20 -19
-40 -34 -44 -34 -6 0 -29 -53 -29 -66 0 -2 7 -4 15 -4 8 0 30 -14 49 -31 39
-34 53 -79 37 -121 -9 -23 -8 -26 6 -21 10 4 14 2 10 -4 -4 -7 0 -10 10 -9 17
3 52 -11 63 -25 7 -9 68 -39 77 -39 4 1 -3 7 -17 15 -14 8 -19 14 -12 15 6 0
21 -9 32 -20 11 -11 20 -18 20 -15 0 2 29 -11 65 -30 97 -52 253 -79 625 -110
102 -8 201 -19 220 -25 19 -5 78 -20 130 -34 145 -38 317 -58 437 -50 116 8
122 16 40 57 -55 27 -102 41 -206 63 -66 14 -85 25 -102 56 -8 15 -5 20 15 28
17 6 24 15 20 24 -3 8 6 41 20 72 14 31 26 67 26 79 0 38 -38 74 -125 116 -46
22 -89 47 -96 55 -16 20 -1 48 30 52 12 2 19 7 16 12 -11 17 32 28 160 40 150
14 191 27 201 64 10 40 -17 72 -77 91 -48 16 -73 17 -298 6 -205 -9 -271 -9
-397 3 -83 9 -171 22 -196 31 -27 9 -59 12 -77 9 -24 -5 -40 -1 -69 18 -20 14
-58 32 -83 40 -39 13 -49 14 -60 3z m652 -266 c21 -7 41 -19 44 -28 8 -21 -39
-59 -83 -67 -48 -9 -133 0 -170 18 -17 9 -32 12 -32 7 0 -6 -8 -9 -17 -7 -22
4 -24 33 -3 33 8 0 20 7 27 15 26 33 162 50 234 29z"/>
<path d="M13950 9433 c0 -9 3 -13 7 -9 10 10 45 -49 114 -189 60 -122 79 -150
35 -51 -89 200 -156 308 -156 249z"/>
<path d="M13936 9395 c-9 -26 -7 -32 5 -12 6 10 9 21 6 23 -2 3 -7 -2 -11 -11z"/>
<path d="M12210 9338 c0 -62 -29 -797 -33 -843 -2 -22 -1 -53 2 -70 4 -17 12
58 20 175 15 238 27 780 17 780 -3 0 -6 -19 -6 -42z"/>
<path d="M17095 9354 c-22 -13 -65 -31 -95 -40 -30 -9 -80 -25 -110 -34 -63
-21 -280 -66 -385 -81 -140 -19 -173 -34 -261 -117 l-24 -23 20 -39 c15 -29
27 -40 43 -40 13 0 40 -9 62 -20 22 -11 51 -20 66 -20 51 0 86 -22 144 -91 24
-29 105 -167 105 -180 0 -5 5 -9 10 -9 6 0 10 -8 10 -18 0 -19 39 -78 78 -118
33 -34 231 -94 352 -106 58 -5 290 -11 515 -13 417 -2 456 -5 617 -46 101 -25
226 -49 260 -49 53 0 132 39 197 97 l64 57 -172 22 c-191 24 -219 32 -250 74
-27 37 -29 53 -12 118 37 146 -58 185 -538 222 -90 6 -146 16 -170 27 -74 37
-47 85 82 148 50 24 88 45 82 45 -59 3 -155 25 -186 41 -39 23 -56 51 -87 149
-17 54 -18 55 -62 62 -25 3 -106 6 -180 6 -125 0 -138 -2 -175 -24z"/>
<path d="M11949 9316 c-2 -2 -37 -6 -77 -9 -40 -3 -76 -7 -79 -10 -9 -10 7
-44 33 -70 14 -14 67 -46 117 -71 127 -63 142 -85 142 -197 0 -60 4 -91 14
-103 13 -16 63 -46 76 -46 3 0 5 44 5 98 0 88 -3 101 -25 134 -45 67 -45 139
0 160 29 13 44 64 24 83 -24 22 -213 47 -230 31z"/>
<path d="M12680 9218 c14 -14 88 -83 165 -153 77 -71 178 -165 224 -209 46
-45 73 -67 60 -51 -35 44 -334 326 -409 386 -36 29 -54 41 -40 27z"/>
<path d="M9420 9176 c-7 -19 -17 -26 -36 -26 -33 0 -92 -28 -103 -49 -5 -9
-13 -34 -17 -56 -7 -38 -76 -125 -99 -125 -6 0 -31 -18 -55 -39 -43 -38 -97
-61 -222 -95 -74 -21 -113 -63 -104 -115 8 -51 43 -75 154 -102 54 -13 110
-32 125 -42 32 -22 195 -66 243 -67 17 0 53 7 80 15 28 8 91 15 142 16 75 2
95 5 108 20 15 16 33 19 121 19 84 0 105 -3 110 -15 3 -9 -2 -24 -11 -34 -16
-18 -15 -19 29 -25 32 -5 45 -12 46 -24 0 -13 3 -11 9 5 22 53 100 68 100 19
0 -29 -20 -46 -61 -55 -16 -3 39 -6 123 -6 125 1 158 4 183 18 17 9 40 17 52
17 40 0 49 9 45 45 -2 19 3 56 12 81 19 57 20 92 3 130 -37 85 -97 129 -232
169 -204 60 -206 63 -203 178 1 56 -3 82 -16 101 -9 14 -21 26 -26 26 -4 0
-16 8 -26 18 -15 15 -44 17 -241 20 l-223 4 -10 -26z"/>
<path d="M14136 9090 c3 -14 11 -32 16 -40 6 -10 7 -7 2 10 -3 14 -11 32 -16
40 -6 10 -7 7 -2 -10z"/>
<path d="M13750 9020 c-6 -11 -8 -20 -6 -20 3 0 10 9 16 20 6 11 8 20 6 20 -3
0 -10 -9 -16 -20z"/>
<path d="M14186 8940 c4 -14 18 -65 30 -115 12 -49 23 -79 23 -65 1 29 -35
166 -50 189 -7 12 -8 9 -3 -9z"/>
<path d="M6766 8923 c-11 -11 -6 -23 9 -23 8 0 15 -4 15 -10 0 -5 5 -10 10
-10 6 0 10 7 10 15 0 16 -34 38 -44 28z"/>
<path d="M13630 8840 c-12 -16 -19 -30 -16 -30 2 0 14 14 26 30 12 17 19 30
16 30 -2 0 -14 -13 -26 -30z"/>
<path d="M13589 8783 c-13 -16 -12 -17 4 -4 9 7 17 15 17 17 0 8 -8 3 -21 -13z"/>
<path d="M13180 8756 c0 -7 60 -68 95 -96 17 -14 3 3 -30 38 -58 60 -65 67
-65 58z"/>
<path d="M13554 8738 l-19 -23 23 19 c21 18 27 26 19 26 -2 0 -12 -10 -23 -22z"/>
<path d="M8713 8685 c-3 -9 -3 -18 -1 -21 3 -3 8 4 11 16 6 23 -1 27 -10 5z"/>
<path d="M13345 8590 c21 -22 41 -40 44 -40 3 0 -13 18 -34 40 -21 22 -41 40
-44 40 -3 0 13 -18 34 -40z"/>
<path d="M14261 8568 c-1 -21 4 -38 9 -38 11 0 11 14 0 50 -7 22 -8 21 -9 -12z"/>
<path d="M12173 8315 c0 -22 2 -30 4 -17 2 12 2 30 0 40 -3 9 -5 -1 -4 -23z"/>
<path d="M11563 8253 c9 -2 23 -2 30 0 6 3 -1 5 -18 5 -16 0 -22 -2 -12 -5z"/>
<path d="M14906 8252 c-3 -5 1 -9 9 -9 8 0 15 4 15 9 0 4 -4 8 -9 8 -6 0 -12
-4 -15 -8z"/>
<path d="M11803 8243 c20 -2 54 -2 75 0 20 2 3 4 -38 4 -41 0 -58 -2 -37 -4z"/>
<path d="M12055 8240 l-110 -6 113 -2 c69 -1 112 2 112 8 0 6 -1 9 -2 8 -2 -1
-52 -5 -113 -8z"/>
<path d="M14828 8204 c-38 -20 -36 -28 2 -9 17 9 30 18 30 20 0 7 -1 6 -32
-11z"/>
<path d="M14683 8132 c-56 -26 -100 -48 -98 -50 5 -5 194 79 201 89 3 5 4 8 2
8 -2 -1 -49 -22 -105 -47z"/>
<path d="M8215 8129 c-4 -5 -49 -41 -101 -79 -88 -65 -124 -108 -124 -145 0
-9 8 -33 19 -55 l19 -39 -25 -23 c-14 -13 -31 -35 -38 -49 -12 -23 -11 -31 16
-79 33 -61 35 -73 14 -90 -21 -18 -19 -37 10 -65 22 -23 32 -25 112 -25 93 0
178 16 227 42 l30 16 -55 27 c-67 34 -137 90 -152 122 -10 22 -5 29 52 87 70
71 80 97 81 220 0 59 -3 72 -26 100 -33 39 -51 49 -59 35z"/>
<path d="M14520 8065 c-19 -7 -28 -14 -20 -14 8 0 29 6 45 14 39 17 21 18 -25
0z"/>
<path d="M19075 8041 c-116 -42 -334 -181 -394 -250 -25 -30 -81 -89 -123
-130 -106 -105 -107 -113 -18 -184 127 -101 282 -171 492 -222 57 -14 108 -32
114 -40 10 -14 12 -14 18 0 3 8 12 15 21 15 13 0 15 48 15 409 l0 409 -31 6
c-40 8 -36 8 -94 -13z"/>
<path d="M14430 8040 c-20 -6 -21 -8 -5 -8 11 0 29 3 40 8 25 11 -1 11 -35 0z"/>
<path d="M14881 8024 c0 -11 3 -14 6 -6 3 7 2 16 -1 19 -3 4 -6 -2 -5 -13z"/>
<path d="M14378 8023 c7 -3 16 -2 19 1 4 3 -2 6 -13 5 -11 0 -14 -3 -6 -6z"/>
<path d="M14277 8009 c7 -7 15 -10 18 -7 3 3 -2 9 -12 12 -14 6 -15 5 -6 -5z"/>
<path d="M14328 8013 c6 -2 18 -2 25 0 6 3 1 5 -13 5 -14 0 -19 -2 -12 -5z"/>
<path d="M10880 7839 c0 -5 5 -7 10 -4 6 3 10 8 10 11 0 2 -4 4 -10 4 -5 0
-10 -5 -10 -11z"/>
<path d="M16124 6676 c-141 -55 -194 -99 -194 -163 0 -123 295 -228 981 -348
223 -39 237 -37 254 37 9 39 -12 65 -87 109 -37 22 -74 49 -83 61 -33 48 -12
104 57 153 26 19 48 41 48 49 0 37 -25 41 -334 47 -313 7 -340 10 -467 59 -68
25 -99 25 -175 -4z"/>
<path d="M15340 5689 c-46 -36 -80 -72 -80 -85 0 -6 -16 -26 -35 -43 -19 -17
-35 -37 -35 -46 0 -21 102 -125 122 -125 24 0 31 -17 24 -56 -6 -28 -11 -34
-31 -34 -22 0 -25 -5 -25 -34 0 -19 -4 -46 -10 -60 -8 -23 -15 -26 -59 -26
-55 0 -58 -4 -59 -78 -1 -37 3 -44 29 -57 16 -9 29 -24 29 -34 0 -26 62 -61
108 -61 24 0 47 -8 64 -23 29 -24 35 -42 23 -70 -4 -10 -5 -20 -3 -23 9 -8
810 -9 891 -1 l77 9 -35 62 c-41 73 -42 82 -15 89 14 3 20 14 20 31 0 20 22
49 90 116 49 49 92 100 95 113 13 52 -34 92 -122 104 -37 5 -43 8 -28 15 12 5
-2 6 -35 2 -42 -4 -51 -2 -40 6 12 9 4 10 -32 8 -25 -2 -44 1 -41 6 4 5 -6 6
-21 2 -45 -11 -144 13 -166 41 -20 26 -18 67 5 93 8 9 21 32 29 52 18 42 8 61
-39 78 -32 13 -338 30 -500 29 -55 0 -116 5 -135 10 -19 6 -35 11 -35 11 0 -1
-11 -10 -25 -21z m520 -723 c0 -26 -13 -40 -47 -50 -20 -6 -23 -4 -23 18 0 15
6 26 14 26 7 0 19 7 26 15 18 22 30 18 30 -9z"/>
<path d="M18290 5681 c-52 -6 -56 -8 -74 -44 -11 -24 -19 -63 -20 -100 -1 -52
5 -74 33 -132 59 -119 156 -206 291 -261 114 -46 388 -104 560 -119 41 -3 85
-8 98 -11 l22 -4 0 168 0 168 -117 0 c-265 0 -356 68 -322 240 13 65 13 67
-10 85 -21 17 -41 19 -215 17 -105 -1 -216 -4 -246 -7z"/>
<path d="M4880 4770 c-10 -7 27 -9 120 -4 74 4 137 8 139 10 10 9 -246 3 -259
-6z"/>
<path d="M5173 4763 c15 -2 39 -2 55 0 15 2 2 4 -28 4 -30 0 -43 -2 -27 -4z"/>
<path d="M5273 4753 c9 -2 23 -2 30 0 6 3 -1 5 -18 5 -16 0 -22 -2 -12 -5z"/>
<path d="M5328 4743 c6 -2 18 -2 25 0 6 3 1 5 -13 5 -14 0 -19 -2 -12 -5z"/>
<path d="M7297 4635 c-31 -63 -55 -115 -52 -115 7 0 117 221 113 226 -2 2 -29
-48 -61 -111z"/>
<path d="M5450 4714 c161 -46 344 -146 510 -277 l75 -59 -55 52 c-73 68 -213
161 -328 216 -89 44 -238 95 -271 93 -9 0 22 -11 69 -25z"/>
<path d="M15130 4535 c-29 -31 -19 -58 23 -59 14 -1 24 0 22 2 -2 3 2 11 10
18 17 17 6 57 -17 62 -7 1 -25 -9 -38 -23z"/>
<path d="M7220 4490 c-6 -11 -8 -20 -6 -20 3 0 10 9 16 20 6 11 8 20 6 20 -3
0 -10 -9 -16 -20z"/>
<path d="M6773 3915 c-78 -80 -138 -145 -133 -145 11 0 185 175 241 241 22 27
39 49 37 49 -1 -1 -67 -66 -145 -145z"/>
<path d="M6365 3618 c-129 -48 -324 -107 -414 -125 -47 -9 -79 -19 -72 -21 39
-13 462 110 559 163 42 22 15 16 -73 -17z"/>
<path d="M5838 3463 c7 -3 16 -2 19 1 4 3 -2 6 -13 5 -11 0 -14 -3 -6 -6z"/>
<path d="M15210 3370 c0 -6 -18 -19 -40 -29 -50 -22 -42 -31 26 -31 58 0 69 9
60 46 -6 24 -46 36 -46 14z"/>
<path d="M14835 3330 c-3 -5 1 -10 9 -10 9 0 16 5 16 10 0 6 -4 10 -9 10 -6 0
-13 -4 -16 -10z"/>
<path d="M15625 3310 c-3 -6 1 -7 9 -4 18 7 21 14 7 14 -6 0 -13 -4 -16 -10z"/>
</g>
</svg>
